0
SECTION
2
HEADER
9
$INSUNITS
70
4
9
$ACADVER
1
AC1014
9
$HANDSEED
5
FFFF
0
ENDSEC
0
SECTION
2
TABLES
0
TABLE
2
VPORT
5
8
100
AcDbSymbolTable
0
ENDTAB
0
TABLE
2
LTYPE
5
5
100
AcDbSymbolTable
0
LTYPE
5
14
100
AcDbSymbolTableRecord
100
AcDbLinetypeTableRecord
2
BYBLOCK
70
0
0
LTYPE
5
15
100
AcDbSymbolTableRecord
100
AcDbLinetypeTableRecord
2
BYLAYER
70
0
0
LTYPE
5
16
100
AcDbSymbolTableRecord
100
AcDbLinetypeTableRecord
2
DASHED
70
0
3
Dashed __ __ __ __ __ __ __ __ __ __ __ __ __ _
72
65
73
2
40
0.75
49
0.5
74
0
49
-0.25
74
0
0
ENDTAB
0
TABLE
2
LAYER
5
2
100
AcDbSymbolTable
70
2
0
LAYER
5
50
100
AcDbSymbolTableRecord
100
AcDbLayerTableRecord
2
0
70
0
62
7
6
CONTINUOUS
0
ENDTAB
0
TABLE
2
STYLE
5
3
100
AcDbSymbolTable
70
1
0
STYLE
5
11
100
AcDbSymbolTableRecord
100
AcDbTextStyleTableRecord
2
STANDARD
70
0
0
ENDTAB
0
TABLE
2
VIEW
5
6
100
AcDbSymbolTable
70
0
0
ENDTAB
0
TABLE
2
UCS
5
7
100
AcDbSymbolTable
70
0
0
ENDTAB
0
TABLE
2
APPID
5
9
100
AcDbSymbolTable
70
2
0
APPID
5
12
100
AcDbSymbolTableRecord
100
AcDbRegAppTableRecord
2
ACAD
70
0
0
ENDTAB
0
TABLE
2
DIMSTYLE
5
A
100
AcDbSymbolTable
70
1
0
ENDTAB
0
TABLE
2
BLOCK_RECORD
5
1
100
AcDbSymbolTable
70
1
0
BLOCK_RECORD
5
1F
100
AcDbSymbolTableRecord
100
AcDbBlockTableRecord
2
*MODEL_SPACE
0
BLOCK_RECORD
5
1B
100
AcDbSymbolTableRecord
100
AcDbBlockTableRecord
2
*PAPER_SPACE
0
ENDTAB
0
ENDSEC
0
SECTION
2
BLOCKS
0
BLOCK
5
20
100
AcDbEntity
100
AcDbBlockBegin
2
*MODEL_SPACE
0
ENDBLK
5
21
100
AcDbEntity
100
AcDbBlockEnd
0
BLOCK
5
1C
100
AcDbEntity
100
AcDbBlockBegin
2
*PAPER_SPACE
0
ENDBLK
5
1D
100
AcDbEntity
100
AcDbBlockEnd
0
ENDSEC
0
SECTION
2
ENTITIES
0
LWPOLYLINE
5
100
100
AcDbEntity
8
0
100
AcDbPolyline
90
28
70
1
43
0.0
10
-11.600500000000002
20
16.48
42
0.40443661225840649
10
-17.896966171731101
20
10.39098281504887
42
0.51183683374096645
10
-16.948201258491917
20
9.0749999999999549
10
-15.999999999998995
20
9.0749999999999549
42
-0.99999999999999989
10
-15.999999999998995
20
6.0749999999999513
10
-16.503500000003054
20
6.0749999999999531
42
0.41421356237309481
10
-18.503500000003051
20
4.074999999999954
10
-18.503500000003051
20
-4.0750000000000473
42
0.4142135623730957
10
-16.503500000003054
20
-6.0750000000000473
10
-15.999999999998995
20
-6.0750000000000473
42
-0.99999999999999989
10
-15.999999999998995
20
-9.0750000000000473
10
-16.948201258491103
20
-9.0749999999994877
42
0.51183683374066757
10
-17.896966171731123
20
-10.390982815048236
42
0.40443661225843536
10
-11.600500000000002
20
-16.48
10
11.600499999999998
20
-16.480000000000004
42
0.40443661226002958
10
17.896966171732274
20
-10.390982815013734
42
0.51183683372925182
10
16.948201258481351
20
-9.0750000000000455
10
16.000000000001005
20
-9.0750000000000455
42
-0.99999999999999989
10
16.000000000001005
20
-6.0750000000000481
10
16.503499999996965
20
-6.0750000000000455
42
0.41421356237309309
10
18.503499999996947
20
-4.0750000000000464
10
18.503499999996947
20
4.074999999999954
42
0.41421356237309459
10
16.503499999996947
20
6.0749999999999513
10
16.000000000001013
20
6.0749999999999513
42
-0.99999999999999989
10
16.000000000001005
20
9.0749999999999549
10
16.948201258485817
20
9.0749999999993918
42
0.51183683373478972
10
17.896966171731719
20
10.390982815030476
42
0.40443661225925548
10
11.600500000000007
20
16.480000000000004
0
CIRCLE
5
101
100
AcDbEntity
8
0
100
AcDbCircle
10
-15.999999999998995
20
7.5749999999999531
30
0
40
0.85000000000000009
210
0
220
-0
230
1
0
CIRCLE
5
102
100
AcDbEntity
8
0
100
AcDbCircle
10
-15.999999999998995
20
-7.5750000000000473
30
0
40
0.85000000000000009
210
0
220
-0
230
1
0
CIRCLE
5
103
100
AcDbEntity
8
0
100
AcDbCircle
10
16.000000000001009
20
7.5749999999999531
30
0
40
0.85000000000000009
210
0
220
-0
230
1
0
CIRCLE
5
104
100
AcDbEntity
8
0
100
AcDbCircle
10
16.000000000001005
20
-7.5750000000000473
30
0
40
0.85000000000000009
210
0
220
-0
230
1
0
LWPOLYLINE
5
105
100
AcDbEntity
8
0
100
AcDbPolyline
90
8
70
1
43
0.0
10
-11.600000000000001
20
17.034591794226547
42
0.41421356237309537
10
-21.059591794226549
20
7.5749999999999984
10
-21.059591794226545
20
-7.5750000000000011
42
0.4142135623730952
10
-11.600000000000003
20
-17.034591794226543
10
11.599999999999998
20
-17.03459179422655
42
0.41421356237309503
10
21.059591794226534
20
-7.5749999999999993
10
21.059591794226534
20
7.5750000000000011
42
0.41421356237309465
10
11.6
20
17.034591794226547
0
ENDSEC
0
SECTION
2
OBJECTS
0
DICTIONARY
5
C
100
AcDbDictionary
3
ACAD_GROUP
350
D
3
ACAD_MLINESTYLE
350
17
0
DICTIONARY
5
D
100
AcDbDictionary
0
DICTIONARY
5
1A
330
C
100
AcDbDictionary
0
DICTIONARY
5
17
100
AcDbDictionary
0
ENDSEC
0
EOF
